<?xml version="1.0" encoding="utf-8"?>
<!-- Generator: Adobe Illustrator 18.1.0, SVG Export Plug-In . SVG Version: 6.00 Build 0)  -->
<svg version="1.1" id="Layer_1" xmlns="http://www.w3.org/2000/svg" xmlns:xlink="http://www.w3.org/1999/xlink" x="0px" y="0px"
	 viewBox="0 0 141.7 141.7" enable-background="new 0 0 141.7 141.7" xml:space="preserve">
<g>
	<defs>
		<rect id="SVGID_1_" x="64.4" y="72.9" width="17.1" height="17.1"/>
	</defs>
	<clipPath id="SVGID_2_">
		<use xlink:href="#SVGID_1_"  overflow="visible"/>
	</clipPath>
	<path clip-path="url(#SVGID_2_)" d="M81.5,81.5c0,4.7-3.8,8.6-8.6,8.6c-4.7,0-8.6-3.8-8.6-8.6s3.8-8.6,8.6-8.6
		C77.7,72.9,81.5,76.8,81.5,81.5"/>
	<path clip-path="url(#SVGID_2_)" fill="#FFFFFF" d="M77.1,83c-0.4-0.4-1.1-0.4-1.5-0.1l-1,0.7c0,0-0.7,0.3-2.4-1.5
		c-1.7-1.8-1.5-2.4-1.5-2.4l0.7-1c0.3-0.5,0.3-1.1-0.1-1.5l-1-1c-0.2-0.2-0.6-0.4-0.9-0.3c-0.3,0-0.6,0.2-0.8,0.5c0,0,0,0,0,0
		L68,77.1c-0.1,0.1-1.9,2.8,2.2,6.9l0,0c2.2,2.1,3.9,2.7,5.1,2.7c1.1,0,1.7-0.4,1.8-0.5l0.8-0.5c0.3-0.2,0.4-0.5,0.5-0.8
		c0-0.3-0.1-0.7-0.3-0.9L77.1,83z"/>
</g>
</svg>
