<?xml version="1.0" encoding="utf-8"?>
<!-- Generator: Adobe Illustrator 18.1.0, SVG Export Plug-In . SVG Version: 6.00 Build 0)  -->
<svg version="1.1" id="Layer_1" xmlns="http://www.w3.org/2000/svg" xmlns:xlink="http://www.w3.org/1999/xlink" x="0px" y="0px"
	 viewBox="0 0 141.7 141.7" enable-background="new 0 0 141.7 141.7" xml:space="preserve">
<g>
	<defs>
		<rect id="SVGID_1_" x="63.8" y="67.7" width="17.1" height="17.1"/>
	</defs>
	<clipPath id="SVGID_2_">
		<use xlink:href="#SVGID_1_"  overflow="visible"/>
	</clipPath>
	<path clip-path="url(#SVGID_2_)" fill="#010101" d="M80.9,76.3c0,4.7-3.8,8.6-8.6,8.6s-8.6-3.8-8.6-8.6s3.8-8.6,8.6-8.6
		S80.9,71.6,80.9,76.3"/>
</g>
<rect x="66.9" y="72.7" fill="#FFFFFF" width="10.8" height="7.3"/>
<g>
	<defs>
		<rect id="SVGID_3_" x="63.8" y="67.7" width="17.1" height="17.1"/>
	</defs>
	<clipPath id="SVGID_4_">
		<use xlink:href="#SVGID_3_"  overflow="visible"/>
	</clipPath>
	<path clip-path="url(#SVGID_4_)" d="M67.2,79.7h10.3v-6.8H67.2V79.7z M77.7,80.2H66.9c-0.1,0-0.3-0.1-0.3-0.3v-7.3
		c0-0.1,0.1-0.3,0.3-0.3h10.8c0.1,0,0.3,0.1,0.3,0.3v7.3C78,80.1,77.9,80.2,77.7,80.2"/>
	<path clip-path="url(#SVGID_4_)" d="M73.2,76.8L73.2,76.8L73.2,76.8z M67.6,72.9l4.1,3.6c0.4,0.3,0.9,0.3,1.3,0l4.1-3.6H67.6z
		 M72.3,77.3c-0.4,0-0.7-0.1-1-0.4l-4.6-4.1c-0.1-0.1-0.1-0.2-0.1-0.3c0-0.1,0.1-0.2,0.2-0.2h10.8c0.1,0,0.2,0.1,0.3,0.2
		c0,0.1,0,0.2-0.1,0.3L73.3,77C73,77.2,72.7,77.3,72.3,77.3"/>
	<path clip-path="url(#SVGID_4_)" d="M77.7,80.2H66.9c-0.1,0-0.2-0.1-0.2-0.2c0-0.1,0-0.2,0.1-0.3l4-3.6c0.1-0.1,0.3-0.1,0.4,0
		c0.1,0.1,0.1,0.3,0,0.4l-3.5,3.1H77l-3.5-3.1c-0.1-0.1-0.1-0.3,0-0.4s0.3-0.1,0.4,0l4,3.6C78,79.8,78,79.9,78,80
		C77.9,80.1,77.8,80.2,77.7,80.2"/>
</g>
</svg>
