<?xml version="1.0" encoding="utf-8"?>
<!-- Generator: Adobe Illustrator 16.0.0, SVG Export Plug-In . SVG Version: 6.00 Build 0)  -->
<!DOCTYPE svg PUBLIC "-//W3C//DTD SVG 1.1//EN" "http://www.w3.org/Graphics/SVG/1.1/DTD/svg11.dtd">
<svg version="1.1" id="Layer_1" xmlns="http://www.w3.org/2000/svg" xmlns:xlink="http://www.w3.org/1999/xlink" x="0px" y="0px"
	 width="612px" height="792px" viewBox="0 0 612 792" enable-background="new 0 0 612 792" xml:space="preserve">
<g>
	<g>
		<defs>
			<rect id="SVGID_1_" x="44.766" y="37.615" width="564.469" height="106.053"/>
		</defs>
		<clipPath id="SVGID_2_">
			<use xlink:href="#SVGID_1_"  overflow="visible"/>
		</clipPath>
		<path clip-path="url(#SVGID_2_)" fill="#1D1D1B" d="M591.514,102.73h-8.792v40.251h5.495v-28.437h0.137l4.671,28.437h6.045
			l4.258-28.849h0.138v28.849h6.044V102.73h-8.791l-4.259,28.574h-0.138L591.514,102.73z M558.406,102.73v30.635
			c0,6.456,3.159,10.165,9.479,10.165c6.182,0,9.479-3.709,9.479-10.165V102.73h-6.045v31.047c0,2.885-1.236,3.846-3.297,3.846
			s-3.297-1.099-3.297-3.846V102.73H558.406z M546.592,143.118h6.319v-40.25h-6.319V143.118z M524.887,102.73v5.77h11.402
			L524.2,137.349v5.633h18.546v-5.771h-12.089l12.089-28.848v-5.633H524.887z M511.837,94.213l-3.847,6.319h4.259l5.906-6.319
			H511.837z M511.013,109.874L511.013,109.874l3.159,20.331h-6.044L511.013,109.874z M515.958,102.73h-9.204l-6.457,40.251h5.77
			l1.1-7.281h7.83l1.099,7.281h6.319L515.958,102.73z M490.818,143.118h6.457v-40.25h-5.495v24.178h-0.138l-6.319-24.178h-7.968
			v40.25h5.633v-29.123h0.138L490.818,143.118z M453.865,102.73h-8.792v40.251h5.494v-28.437h0.138l4.671,28.437h6.045l4.258-28.849
			h0.138v28.849h6.044V102.73h-8.791l-4.259,28.574h-0.138L453.865,102.73z M432.984,143.118h6.319v-40.25h-6.319V143.118z
			 M420.071,126.358h2.885v7.419c0,2.885-1.236,3.846-3.297,3.846s-3.297-1.099-3.297-3.846v-21.705
			c0-2.885,1.236-3.984,3.297-3.984s3.297,1.1,3.297,3.984v4.258H429v-3.846c0-6.457-3.159-10.166-9.479-10.166
			c-6.182,0-9.479,3.709-9.479,10.166v20.881c0,6.456,3.159,10.165,9.479,10.165c6.182,0,9.479-3.709,9.479-10.165v-12.776h-8.929
			V126.358z M379.271,108.5h6.595v34.481h6.318V108.5h6.595v-5.77h-19.508V108.5L379.271,108.5z M366.221,108.5h10.989v-5.77
			h-17.309v40.251h17.309v-5.771h-10.989v-11.813h8.654v-5.771h-8.654V108.5z M346.026,108.5c2.198,0,3.16,1.236,3.16,4.121v2.198
			c0,3.159-1.374,4.259-3.847,4.259h-2.473v-10.715h3.159V108.5z M345.752,124.985c2.885,0,4.121,1.099,4.121,4.945v3.571
			c0,3.022-1.099,3.984-3.297,3.984h-3.572v-12.364h2.748V124.985z M346.164,102.73h-9.616v40.251h9.891
			c6.319,0,9.616-3.297,9.616-9.616v-3.297c0-4.259-1.374-7.281-4.671-8.518v-0.138c2.885-1.373,4.121-3.847,4.121-8.104v-1.374
			C355.505,105.753,352.758,102.73,346.164,102.73 M324.596,94.213l-3.846,6.319h4.259l5.906-6.319H324.596z M321.711,108.5h10.99
			v-5.77h-17.309v40.251h17.309v-5.771h-10.99v-11.813h8.655v-5.771h-8.655V108.5z M293.138,112.484
			c0,4.67,1.648,7.968,7.006,12.638c4.121,3.572,5.357,5.771,5.357,8.792c0,2.885-1.236,3.847-3.297,3.847s-3.297-1.099-3.297-3.847
			v-2.885h-6.044v2.473c0,6.457,3.159,10.166,9.479,10.166c6.182,0,9.479-3.709,9.479-10.166c0-4.671-1.648-7.968-7.006-12.638
			c-4.121-3.572-5.357-5.771-5.357-8.792c0-2.885,1.099-3.984,3.159-3.984s3.16,1.1,3.16,3.984v1.648h6.044v-1.236
			c0-6.457-3.159-10.166-9.342-10.166C296.297,102.318,293.138,106.027,293.138,112.484 M272.257,102.73v5.77h11.402l-12.089,28.849
			v5.633h18.545v-5.771h-12.089l12.089-28.848v-5.633H272.257z M258.794,108.5c2.198,0,3.16,1.236,3.16,4.121v3.984
			c0,3.159-1.374,4.259-3.847,4.259h-2.473V108.5H258.794z M269.097,143.118c-0.687-1.511-0.687-2.885-0.687-4.945v-6.182
			c0-4.259-1.099-7.144-4.259-8.518v-0.137c2.885-1.374,4.121-3.984,4.121-8.105v-3.159c0-6.183-2.885-9.204-9.341-9.204h-9.616
			v40.25h6.319v-16.348h2.198c2.885,0,4.122,1.374,4.122,5.083v6.319c0,3.297,0.274,3.847,0.549,4.945H269.097z M234.616,108.5
			h10.99v-5.77h-17.309v40.251h17.309v-5.771h-10.99v-11.813h8.655v-5.771h-8.655V108.5z M208.378,143.118h6.319v-40.25h-6.319
			V143.118z M191.618,143.118h6.319v-13.325l7.968-26.925h-6.044l-4.808,18.408h-0.137l-4.808-18.408h-6.594l7.968,26.925v13.325
			H191.618z M173.623,126.358h2.885v7.419c0,2.885-1.236,3.846-3.297,3.846s-3.297-1.099-3.297-3.846v-21.705
			c0-2.885,1.236-3.984,3.297-3.984s3.297,1.1,3.297,3.984v4.258h6.044v-3.846c0-6.457-3.16-10.166-9.479-10.166
			c-6.182,0-9.479,3.709-9.479,10.166v20.881c0,6.456,3.16,10.165,9.479,10.165c6.182,0,9.479-3.709,9.479-10.165v-12.776h-8.929
			V126.358z M150.681,94.213l-3.847,6.319h4.259L157,94.213H150.681z M149.719,109.874L149.719,109.874l3.16,20.331h-6.044
			L149.719,109.874z M154.802,102.73h-9.204l-6.457,40.251h5.77l1.099-7.281h7.831l1.099,7.281h6.319L154.802,102.73z
			 M120.047,143.118h16.759v-5.77h-10.44v-34.48h-6.319V143.118z M109.057,143.118h6.319v-40.25h-6.319V143.118z M87.489,102.73
			v5.77h11.402l-12.089,28.849v5.633h18.545v-5.771H93.396l12.089-28.848v-5.633H87.489z M65.509,112.484
			c0,4.67,1.648,7.968,7.006,12.638c4.122,3.572,5.358,5.771,5.358,8.792c0,2.885-1.236,3.847-3.297,3.847
			c-2.061,0-3.297-1.099-3.297-3.847v-2.885h-6.044v2.473c0,6.457,3.16,10.166,9.479,10.166c6.182,0,9.479-3.709,9.479-10.166
			c0-4.671-1.648-7.968-7.006-12.638c-4.121-3.572-5.357-5.771-5.357-8.792c0-2.885,1.099-3.984,3.16-3.984s3.159,1.1,3.159,3.984
			v1.648h6.045v-1.236c0-6.457-3.16-10.166-9.342-10.166C68.669,102.318,65.509,106.027,65.509,112.484"/>
	</g>
	<g>
		<defs>
			<rect id="SVGID_3_" x="44.766" y="37.615" width="564.469" height="106.053"/>
		</defs>
		<clipPath id="SVGID_4_">
			<use xlink:href="#SVGID_3_"  overflow="visible"/>
		</clipPath>
		<path clip-path="url(#SVGID_4_)" fill="#1D1D1B" d="M445.21,85.559h6.319v-40.25h-6.319V85.559z M421.72,50.94h6.594v34.481h6.319
			V50.94h6.594v-5.77H421.72V50.94z M408.669,50.94h10.99v-5.77h-17.31v40.25h17.31v-5.77h-10.99V67.838h8.654v-5.771h-8.654V50.94z
			 M382.843,85.559h16.76v-5.77h-10.44v-34.48h-6.319V85.559z M369.654,43.11h5.495v-5.495h-5.495V43.11z M360.863,43.11h5.494
			v-5.495h-5.494V43.11z M358.527,45.171v30.635c0,6.456,3.16,10.165,9.479,10.165c6.183,0,9.479-3.709,9.479-10.165V45.171h-6.045
			v31.047c0,2.885-1.236,3.846-3.297,3.846s-3.297-1.099-3.297-3.846V45.171H358.527z M343.828,50.94c2.198,0,3.16,1.236,3.16,4.121
			v3.984c0,3.159-1.374,4.259-3.847,4.259h-2.473V50.94H343.828z M354.132,85.559c-0.688-1.511-0.688-2.885-0.688-4.945v-6.182
			c0-4.259-1.099-7.144-4.258-8.518v-0.137c2.885-1.374,4.121-3.984,4.121-8.105v-3.159c0-6.183-2.885-9.204-9.342-9.204h-9.616
			v40.25h6.319V69.211h2.198c2.885,0,4.121,1.374,4.121,5.083v6.319c0,3.297,0.274,3.847,0.549,4.945H354.132z M319.65,50.94h10.99
			v-5.77h-17.31v40.25h17.31v-5.77h-10.99V67.838h8.655v-5.771h-8.655V50.94z M302.754,85.559h6.456l-8.792-22.392l8.792-17.996
			h-6.318l-8.105,17.446h-0.138V45.171h-6.319v40.251h6.319V73.058l1.924-3.709L302.754,85.559z M269.922,85.559h6.044v-6.044
			h-6.044V85.559z M258.932,85.559h6.319v-40.25h-6.319V85.559z M227.748,50.94h6.594v34.481h6.319V50.94h6.594v-5.77h-19.507V50.94
			L227.748,50.94z M207.279,54.925c0,4.67,1.648,7.967,7.006,12.638c4.121,3.572,5.357,5.771,5.357,8.792
			c0,2.885-1.236,3.847-3.297,3.847s-3.297-1.099-3.297-3.847V73.47h-6.044v2.473c0,6.457,3.16,10.166,9.479,10.166
			c6.182,0,9.479-3.709,9.479-10.166c0-4.671-1.648-7.968-7.006-12.639c-4.121-3.571-5.357-5.77-5.357-8.791
			c0-2.885,1.099-3.984,3.16-3.984s3.16,1.1,3.16,3.984v1.648h6.044v-1.236c0-6.457-3.16-10.166-9.341-10.166
			C210.438,44.759,207.279,48.468,207.279,54.925 M193.129,50.94h10.99v-5.77h-17.309v40.25h17.309v-5.77h-10.99V67.838h8.655
			v-5.771h-8.655V50.94z M173.348,50.94c2.061,0,3.16,0.962,3.16,3.847v6.044c0,2.886-1.099,3.847-3.16,3.847h-3.022v-13.6h3.022
			V50.94z M173.348,45.171h-9.341v40.251h6.319V70.311h3.022c6.319,0,9.479-3.572,9.479-9.892v-5.22
			C182.827,48.742,179.667,45.171,173.348,45.171 M148.483,52.314L148.483,52.314l3.16,20.331h-6.044L148.483,52.314z
			 M153.429,45.171h-9.204l-6.457,40.251h5.77l1.099-7.281h7.83l1.099,7.281h6.319L153.429,45.171z M124.717,50.94
			c2.061,0,3.16,1.1,3.16,3.847v20.881c0,2.885-1.236,3.847-3.16,3.847h-3.572V50.804h3.572V50.94z M114.827,85.559h10.028
			c6.319,0,9.479-3.571,9.479-9.891V55.337c0-6.457-3.16-9.892-9.479-9.892h-10.028V85.559z M90.511,45.171v30.635
			c0,6.456,3.16,10.165,9.479,10.165c6.182,0,9.479-3.709,9.479-10.165V45.171h-6.044v31.047c0,2.885-1.236,3.846-3.297,3.846
			s-3.297-1.099-3.297-3.846V45.171H90.511z M75.675,50.94c2.198,0,3.16,1.236,3.16,4.121v2.198c0,3.159-1.374,4.259-3.846,4.259
			h-2.473V50.804h3.16V50.94z M75.4,67.426c2.885,0,4.121,1.099,4.121,4.945v3.571c0,3.022-1.099,3.984-3.297,3.984h-3.572V67.562
			H75.4V67.426z M75.812,45.171h-9.616v40.251h9.891c6.319,0,9.616-3.298,9.616-9.616v-3.297c0-4.259-1.374-7.281-4.67-8.518v-0.138
			c2.885-1.373,4.121-3.847,4.121-8.104v-1.374C85.291,48.33,82.406,45.171,75.812,45.171"/>
	</g>
</g>
<rect x="44.766" y="45.309" fill="#1EA084" width="6.319" height="98.359"/>
</svg>
