<?xml version="1.0" encoding="utf-8"?>
<!-- Generator: Adobe Illustrator 18.1.0, SVG Export Plug-In . SVG Version: 6.00 Build 0)  -->
<svg version="1.1" id="Layer_1" xmlns="http://www.w3.org/2000/svg" xmlns:xlink="http://www.w3.org/1999/xlink" x="0px" y="0px"
	 viewBox="0 0 141.7 141.7" enable-background="new 0 0 141.7 141.7" xml:space="preserve">
<g>
	<defs>
		<rect id="SVGID_1_" x="63" y="70.6" width="17.1" height="17.1"/>
	</defs>
	<clipPath id="SVGID_2_">
		<use xlink:href="#SVGID_1_"  overflow="visible"/>
	</clipPath>
	<path clip-path="url(#SVGID_2_)" d="M80.1,79.2c0,4.7-3.8,8.6-8.6,8.6S63,83.9,63,79.2s3.8-8.6,8.6-8.6S80.1,74.4,80.1,79.2"/>
	<path clip-path="url(#SVGID_2_)" fill="#FFFFFF" d="M71.6,79c-0.9,0-1.6-0.7-1.6-1.6s0.7-1.6,1.6-1.6c0.9,0,1.6,0.7,1.6,1.6
		S72.5,79,71.6,79 M75.4,77.4c0-2.1-1.7-3.8-3.8-3.8c-2.1,0-3.8,1.7-3.8,3.8c0,0-0.3,3.7,3.8,7.3C75.6,81.1,75.4,77.4,75.4,77.4"/>
</g>
</svg>
